<svg width="284" height="249" viewBox="0 0 284 249" fill="none" xmlns="http://www.w3.org/2000/svg">
<rect x="110" y="136" width="64" height="75" fill="#1AA0E0"/>
<path fill-rule="evenodd" clip-rule="evenodd" d="M142 0.578644L142.579 0L284 141.421L241.574 183.848L142 84.2742V0.578644Z" fill="#1AA0E0"/>
<path fill-rule="evenodd" clip-rule="evenodd" d="M142.5 99.3047L142.812 99L219 173.472L196.144 195.814L142.5 143.379V99.3047Z" fill="#1AA0E0"/>
<path fill-rule="evenodd" clip-rule="evenodd" d="M142.5 248.695L142.812 249L219 174.528L196.144 152.186L142.5 204.621V248.695Z" fill="#1AA0E0"/>
<path fill-rule="evenodd" clip-rule="evenodd" d="M142.5 248.695L142.188 249L66 174.528L88.8565 152.186L142.5 204.621V248.695Z" fill="#1AA0E0"/>
<path fill-rule="evenodd" clip-rule="evenodd" d="M142.5 99.3047L142.188 99L66 173.472L88.8565 195.814L142.5 143.379V99.3047Z" fill="#1AA0E0"/>
<path fill-rule="evenodd" clip-rule="evenodd" d="M142.5 99.3047L142.188 99L66 173.472L88.8565 195.814L142.5 143.379V99.3047Z" fill="#1AA0E0"/>
<path fill-rule="evenodd" clip-rule="evenodd" d="M142 0.578644L141.421 0L0 141.421L42.4264 183.848L142 84.2742V0.578644Z" fill="#1279AA"/>
</svg>
